<?xml version="1.0" encoding="utf-8"?>
<!-- Generator: Adobe Illustrator 25.4.1, SVG Export Plug-In . SVG Version: 6.00 Build 0)  -->
<svg version="1.1" id="Layer_1" xmlns="http://www.w3.org/2000/svg" xmlns:xlink="http://www.w3.org/1999/xlink" x="0px" y="0px"
	 viewBox="0 0 1080 1080" style="enable-background:new 0 0 1080 1080;" xml:space="preserve">
<style type="text/css">
	.st0{fill-rule:evenodd;clip-rule:evenodd;fill:#C0E2FD;}
	.st1{fill-rule:evenodd;clip-rule:evenodd;fill:#FDFEFE;}
	.st2{fill-rule:evenodd;clip-rule:evenodd;fill:#E4F3FE;}
	.st3{fill-rule:evenodd;clip-rule:evenodd;fill:#FCFDFE;}
	.st4{fill-rule:evenodd;clip-rule:evenodd;fill:#FAFDFF;}
	.st5{fill-rule:evenodd;clip-rule:evenodd;fill:#E8F5FF;}
	.st6{fill-rule:evenodd;clip-rule:evenodd;fill:#DAEEFE;}
	.st7{fill-rule:evenodd;clip-rule:evenodd;fill:#E5F3FE;}
	.st8{fill-rule:evenodd;clip-rule:evenodd;fill:#DFF0FE;}
	.st9{fill-rule:evenodd;clip-rule:evenodd;fill:#EDF6FE;}
	.st10{fill-rule:evenodd;clip-rule:evenodd;fill:#E7F5FF;}
	.st11{fill-rule:evenodd;clip-rule:evenodd;fill:#DCEFFE;}
	.st12{fill-rule:evenodd;clip-rule:evenodd;fill:#E7F4FF;}
	.st13{fill-rule:evenodd;clip-rule:evenodd;fill:#E9F5FE;}
	.st14{fill-rule:evenodd;clip-rule:evenodd;fill:#DEF0FE;}
	.st15{fill-rule:evenodd;clip-rule:evenodd;fill:#ECF6FE;}
	.st16{fill-rule:evenodd;clip-rule:evenodd;fill:#E4F2FE;}
	.st17{fill-rule:evenodd;clip-rule:evenodd;fill:#EDF7FF;}
	.st18{fill-rule:evenodd;clip-rule:evenodd;fill:#EAF5FE;}
	.st19{fill-rule:evenodd;clip-rule:evenodd;fill:#E6F4FF;}
	.st20{fill-rule:evenodd;clip-rule:evenodd;fill:#EEF7FF;}
	.st21{fill-rule:evenodd;clip-rule:evenodd;fill:#DBEEFE;}
	.st22{fill-rule:evenodd;clip-rule:evenodd;fill:#E6F3FE;}
	.st23{fill-rule:evenodd;clip-rule:evenodd;fill:#E5F4FF;}
	.st24{fill-rule:evenodd;clip-rule:evenodd;fill:#E5F3FF;}
	.st25{fill-rule:evenodd;clip-rule:evenodd;fill:#EAF6FF;}
	.st26{fill-rule:evenodd;clip-rule:evenodd;fill:#E8F4FE;}
	.st27{fill-rule:evenodd;clip-rule:evenodd;fill:#EFF7FE;}
	.st28{fill-rule:evenodd;clip-rule:evenodd;fill:#EEF8FF;}
	.st29{fill-rule:evenodd;clip-rule:evenodd;fill:#E4F3FF;}
	.st30{fill-rule:evenodd;clip-rule:evenodd;fill:#E3F3FE;}
	.st31{fill-rule:evenodd;clip-rule:evenodd;fill:#EBF6FF;}
	.st32{fill-rule:evenodd;clip-rule:evenodd;fill:#ECF7FF;}
	.st33{fill-rule:evenodd;clip-rule:evenodd;fill:#EFF8FF;}
	.st34{fill-rule:evenodd;clip-rule:evenodd;fill:#FBFDFF;}
	.st35{fill-rule:evenodd;clip-rule:evenodd;fill:#C1E2FD;}
</style>
<g>
	<path class="st0" d="M-0.5-0.5c360,0,720,0,1080,0c0,49.7,0,99.3,0,149c-13-11.8-28-15.3-45-10.5c-3.9,2.1-7.9,3.9-12,5.5
		c-2.5-2.6-5.1-5-8-7c-7-6.7-15.3-9.3-25-8c-0.7-5-1.3-10-2-15c-1.2-5.6-3.9-10.5-8-14.5c-7.2-5.2-15.2-8.2-24-9
		c-13.9-16-30.9-20.3-51-13c-7.6,3.5-14,8.6-19,15.5c-34.7-1.8-57.2,13.8-67.5,47c-0.2,4-0.7,8-1.5,12c-20.4-6.7-35.3-0.4-44.5,19
		c-1.8,6.2-2.9,12.5-3.5,19c-5.3-2.9-11-4.1-17-3.5c-4.8,2.1-9.3,4.6-13.5,7.5c-11.2-3.5-19.6-0.2-25,10c-0.7,3.1-0.6,6.1,0.5,9
		c2.3,5.7,6.6,8.7,13,9c4.9-0.3,9.2-2,13-5c15.6,11.6,30.1,10.3,43.5-4c20.2,7.2,39.2,4.9,57-7c26.3,21.2,52.6,21.2,79,0
		c25.3,18.9,50.5,18.6,75.5-1c7.1,7,15.5,8.9,25,5.5c2-1.9,4.3-3,7-3.5c15.8,4,31.7,4,47.5,0c2,0.3,3.8,0.9,5.5,2
		c0,241.7,0,483.3,0,725c-2,1.2-4,2-6,2.5c1-1.5,0.9-3-0.5-4.5c-1.1-2.1-2.6-3.8-4.5-5c-4.1-6.7-9.7-11.7-17-15
		c-12-7.7-25.4-11.3-40-11c-4,0.2-8,0.5-12,1c-3.7-0.3-7,0.3-10,2c-1-0.2-1.7,0.2-2,1c-2.6,0.9-5.3,1.5-8,2
		c-2.6-11.8-8.3-22-17-30.5c-2.9-1.3-5.3-3.3-7-6c-4.2-1.5-8.2-3.5-12-6c-4.6-1.5-9.2-2.3-14-2.5c-5.3-1.3-10.7-1.3-16,0
		c-14.2,3.9-25.9,11.6-35,23c-12.3-11.2-25.8-12.9-40.5-5c-3.9-5.8-8.4-11.1-13.5-16c-3.4-2.1-7.1-3.5-11-4c-6.2-1.6-12.2-0.9-18,2
		c-3.8,1-7.3,2.6-10.5,5c-1-2.1-2.5-3.8-4.5-5c-5.2-6.3-11.9-9.9-20-11c-4.6-0.6-9.3-1-14-1c-4.9,0.4-9.6,1.4-14,3
		c-5,0.9-8.5,3.6-10.5,8c-4.2-8-10.7-13.4-19.5-16c-2.5-2.4-5.5-3.4-9-3c-1.1-0.8-2.4-1.3-4-1.5c-5-0.5-10-0.7-15-0.5
		c-1.8-0.7-3.8-1-6-1c-2.5,0-4.5,0.7-6,2c-3.6,0.6-7.3,1.1-11,1.5c-4.3,0.9-8,2.7-11,5.5c-3.2,0.9-5.9,2.5-8,5
		c-11.2,7.4-21,16.4-29.5,27c-2.9,4.9-6.1,9.5-9.5,14c-20.1-9.3-41.1-12.1-63-8.5c-3.9,1.8-7.9,3.3-12,4.5
		c-2.8-12.8-9.2-23.7-19-32.5c-27.9-20-54.1-17.9-78.5,6.5c-1.4,1.8-2.4,3.8-3,6c-0.7-2.7-2.2-4.9-4.5-6.5c-10.6-6.6-21.6-7.2-33-2
		c-1.5,0.8-2.7,2-3.5,3.5c-0.5-3.4-1.9-6.4-4-9c-3.2-2.8-6-6-8.5-9.5c-5.7-2.8-11.7-4.3-18-4.5c-3.3-0.1-6.3,0.6-9,2
		c-4.6,1-8.6,3-12,6c-5-6.8-11.3-12-19-15.5c-1.6-0.5-3.3-0.7-5-0.5c-5-0.6-10-0.9-15-1c-3.7,0.5-7.3,1-11,1.5c-2,0.4-3.7,1.2-5,2.5
		c-2.9,1.1-5.8,2.4-8.5,4c-3.5-2.5-6.6-5.3-9.5-8.5c-2.7-2-5.7-3.5-9-4.5c-3.5-2.7-7.5-4-12-4c-0.3,0-0.7,0-1,0
		c-0.4-0.7-1.1-1.2-2-1.5c-8.7-0.7-17.3-0.7-26,0c-0.6,0.4-0.9,0.9-1,1.5c-3.7,0.5-7.4,1.2-11,2c-6,2-11.3,5-16,9
		c-15.9,10.8-28.9,24.3-39,40.5c-5.3-0.4-10.6-0.9-16-1.5c-3.8,0-7.5,0.6-11,2c-6.3,1.8-11.7,5.2-16,10c-1.7,0.8-2.8,2.2-3.5,4
		c-3.2-3.9-7-7-11.5-9.5c-20.7-11.2-42.4-13.4-65-6.5c-4.2,0.2-7.6,1.8-10,5c-1.1,0.1-2.1,0.4-3,1c0-189.7,0-379.3,0-569
		c4.9-1.4,9.7-3,14.5-5c16.9,12.5,33.1,11.5,48.5-3c11.1,6.8,23.1,9.3,36,7.5c10.6,0,20.1-3.2,28.5-9.5c0.7,4.7,2.9,8.5,6.5,11.5
		c10.3,6.3,21.3,8,33,5c5.1-1.5,10.1-3.4,15-5.5c15.3,5.8,30.3,5.2,45-2c18.7,14.1,36.6,13.1,53.5-3c29,8.6,56.5,5.1,82.5-10.5
		c12.7-0.3,25.3-0.7,38-1c1.4-0.4,2.4-1.2,3-2.5c1.8-3.4,0.8-5.9-3-7.5c-10-3.4-20.4-5.4-31-6c-21.6-14.4-44.6-17.2-69-8.5
		c-7.8-13.7-19.4-19-35-16c-4-8.3-10.5-11.3-19.5-9c-2.9-22.2-15-36.4-36.5-42.5c-21.4-2.8-37,5.2-47,24c-10.7,1.9-17.4,8-20,18.5
		c-13-0.6-22.1,5.1-27.5,17c-13.2-4.4-26.2-3.7-39,2c-19.5-13.9-37-11.7-52.5,6.5c-7.9-1.1-15.9-2-24-2.5
		C-0.5,178.8-0.5,89.2-0.5-0.5z"/>
</g>
<g>
	<path class="st1" d="M987.5,113.5c-0.4,0.7-1.1,1.2-2,1.5c0.8,0.3,1.5,0.8,2,1.5c-12.4,15.1-27.8,19.3-46,12.5
		c-1.2-1.5-2.3-3-3.5-4.5c-5.2,8.9-12.4,15.7-21.5,20.5c-7.3,2.5-14.3,1.8-21-2c-0.5-0.9-1.2-1.8-2-2.5c-4.2,14.7-13.6,24.9-28,30.5
		c-2.5,0.5-5,1-7.5,1.5c-2.6-0.3-3.4-1.5-2.5-3.5c-1.4-1.4-2.3-2.9-2.5-4.5c-0.5,1-1,2-1.5,3c1.4,1,2,2.4,2,4
		c-6.7,0.3-12.9-1.4-18.5-5c-3.1,2.6-6.5,4.9-10,7c-2.9-0.7-5.8-1.7-8.5-3c-2.8,13.7-10.4,23.6-23,29.5c-6.5,0.9-12.6,1.4-18.5,1.5
		c-2.6,0.1-4.9-0.5-7-2c-0.3,0.7-0.7,1.3-1,2c-0.4-1.2-1.1-2.2-2-3c0.5,1.9,0.3,3.7-0.5,5.5c-5.9,3.3-12.2,4.3-19,3
		c-2.3-1.4-4.4-2.9-6.5-4.5c-6.3,9.1-14.8,12.4-25.5,10c-1.1-2.9-1.2-5.9-0.5-9c5.4-10.2,13.8-13.5,25-10c4.2-2.9,8.7-5.4,13.5-7.5
		c6-0.6,11.7,0.6,17,3.5c0.6-6.5,1.7-12.8,3.5-19c9.2-19.4,24.1-25.7,44.5-19c0.8-4,1.3-8,1.5-12c10.3-33.2,32.8-48.8,67.5-47
		c5-6.9,11.4-12,19-15.5c20.1-7.3,37.1-3,51,13c8.8,0.8,16.8,3.8,24,9C983.6,103,986.3,107.9,987.5,113.5z"/>
</g>
<g>
	<path class="st2" d="M987.5,113.5c0.7,5,1.3,10,2,15c-5.6,8.8-11.4,17.5-17.5,26c-0.5,1.2,0,2.1,1.5,2.5c5.3,0.3,10.6-0.1,16-1
		c5-2.2,9.7-4.8,14-8c3.7-3.8,7.4-7.7,11-11.5c2.9,2,5.5,4.4,8,7c-2.5,8.4-5.8,16.5-10,24.5c0.6,2.5,1.9,4.5,4,6
		c12.7,8.6,25.6,9.4,38.5,2.5c2.6-1.4,5.1-2.9,7.5-4.5c6.2-5.7,11.9-11.9,17-18.5c0,7.7,0,15.3,0,23c-2.8,2.9-5.1,6.2-7,10
		c1.6,1.9,3.4,3.6,5.5,5c0.4-0.6,0.9-0.9,1.5-1c0,6,0,12,0,18c-1.7-1.1-3.5-1.7-5.5-2c-15.8,4-31.7,4-47.5,0c-2.7,0.5-5,1.6-7,3.5
		c-9.5,3.4-17.9,1.5-25-5.5c-25,19.6-50.2,19.9-75.5,1c-26.4,21.2-52.7,21.2-79,0c-17.8,11.9-36.8,14.2-57,7
		c-13.4,14.3-27.9,15.6-43.5,4c-3.8,3-8.1,4.7-13,5c-6.4-0.3-10.7-3.3-13-9c10.7,2.4,19.2-0.9,25.5-10c2.1,1.6,4.2,3.1,6.5,4.5
		c6.8,1.3,13.1,0.3,19-3c0.8-1.8,1-3.6,0.5-5.5c0.9,0.8,1.6,1.8,2,3c0.3-0.7,0.7-1.3,1-2c2.1,1.5,4.4,2.1,7,2
		c5.9-0.1,12-0.6,18.5-1.5c12.6-5.9,20.2-15.8,23-29.5c2.7,1.3,5.6,2.3,8.5,3c3.5-2.1,6.9-4.4,10-7c5.6,3.6,11.8,5.3,18.5,5
		c0-1.6-0.6-3-2-4c0.5-1,1-2,1.5-3c0.2,1.6,1.1,3.1,2.5,4.5c-0.9,2-0.1,3.2,2.5,3.5c2.5-0.5,5-1,7.5-1.5c14.4-5.6,23.8-15.8,28-30.5
		c0.8,0.7,1.5,1.6,2,2.5c6.7,3.8,13.7,4.5,21,2c9.1-4.8,16.3-11.6,21.5-20.5c1.2,1.5,2.3,3,3.5,4.5c18.2,6.8,33.6,2.6,46-12.5
		c-0.5-0.7-1.2-1.2-2-1.5C986.4,114.7,987.1,114.2,987.5,113.5z"/>
</g>
<g>
	<path class="st3" d="M1014.5,136.5c-3.6,3.8-7.3,7.7-11,11.5c-4.3,3.2-9,5.8-14,8c-5.4,0.9-10.7,1.3-16,1c-1.5-0.4-2-1.3-1.5-2.5
		c6.1-8.5,11.9-17.2,17.5-26C999.2,127.2,1007.5,129.8,1014.5,136.5z"/>
</g>
<g>
	<path class="st1" d="M1079.5,148.5c0,1.7,0,3.3,0,5c-5.1,6.6-10.8,12.8-17,18.5c-2.4,1.6-4.9,3.1-7.5,4.5
		c-12.9,6.9-25.8,6.1-38.5-2.5c-2.1-1.5-3.4-3.5-4-6c4.2-8,7.5-16.1,10-24.5c4.1-1.6,8.1-3.4,12-5.5
		C1051.5,133.2,1066.5,136.7,1079.5,148.5z"/>
</g>
<g>
	<path class="st4" d="M1079.5,176.5c0,4.7,0,9.3,0,14c-0.6,0.1-1.1,0.4-1.5,1c-2.1-1.4-3.9-3.1-5.5-5
		C1074.4,182.7,1076.7,179.4,1079.5,176.5z"/>
</g>
<g>
	<path class="st1" d="M403.5,292.5c-9.5,0.9-17.7-2.1-24.5-9c-0.4,0.9-1.1,1.6-2,2c-16.8,5.2-32.8,3.6-48-5
		c-5.1,2.7-10.2,5.2-15.5,7.5c-12.7,3.6-20.5-0.9-23.5-13.5c-12.3,8.1-22.6,6.1-31-6c-1.6-3.1-2.6-6.5-3-10
		c-4.7,8.8-11.8,11.9-21.5,9.5c-8.3,13.2-19.6,16.6-34,10c-2.1-1.1-3.9-2.6-5.5-4.5c-3.5,4.7-8,8-13.5,10c-1.1-0.3-2-1-2.5-2
		c-0.5,0.9-0.6,1.9-0.5,3c-7.9,1.8-15.2,0.5-22-4c-0.9-0.8-1.2-1.8-1-3c-3.1-0.3-5.3-2-6.5-5c-2.5-3.6-3.8-7.6-4-12
		c-4.7,8-10,9-16,3c-5.4,8.9-11,16.9-17,24c-2.2,1.1-4.2,2.4-6,4c-0.5-2.4-1.3-2.6-2.5-0.5c0.8,1.6,0.2,2.6-2,3
		c-10.4,3.1-20,1.7-29-4c-2.3-2.1-4-4.6-5-7.5c-16.2,14.8-33.9,16.8-53,6c-4.7,2.5-9.7,4.2-15,5c0-8.3,0-16.7,0-25
		c8.1,0.5,16.1,1.4,24,2.5c15.5-18.2,33-20.4,52.5-6.5c12.8-5.7,25.8-6.4,39-2c5.4-11.9,14.5-17.6,27.5-17
		c2.6-10.5,9.3-16.6,20-18.5c10-18.8,25.6-26.8,47-24c21.5,6.1,33.6,20.3,36.5,42.5c9-2.3,15.5,0.7,19.5,9c15.6-3,27.2,2.3,35,16
		c24.4-8.7,47.4-5.9,69,8.5c10.6,0.6,21,2.6,31,6C404.3,286.6,405.3,289.1,403.5,292.5z"/>
</g>
<g>
	<path class="st5" d="M192.5,244.5c0.8,1.8,1.4,3.8,2,6c-0.3,0.3-0.7,0.7-1,1C192.5,249.3,192.2,246.9,192.5,244.5z"/>
</g>
<g>
	<path class="st2" d="M403.5,292.5c-0.6,1.3-1.6,2.1-3,2.5c-12.7,0.3-25.3,0.7-38,1c-26,15.6-53.5,19.1-82.5,10.5
		c-16.9,16.1-34.8,17.1-53.5,3c-14.7,7.2-29.7,7.8-45,2c-4.9,2.1-9.9,4-15,5.5c-11.7,3-22.7,1.3-33-5c-3.6-3-5.8-6.8-6.5-11.5
		c-8.4,6.3-17.9,9.5-28.5,9.5c-12.9,1.8-24.9-0.7-36-7.5C47.1,317,30.9,318,14,305.5c-4.8,2-9.6,3.6-14.5,5c0-5.7,0-11.3,0-17
		c5.3-0.8,10.3-2.5,15-5c19.1,10.8,36.8,8.8,53-6c1,2.9,2.7,5.4,5,7.5c9,5.7,18.6,7.1,29,4c2.2-0.4,2.8-1.4,2-3
		c1.2-2.1,2-1.9,2.5,0.5c1.8-1.6,3.8-2.9,6-4c6-7.1,11.6-15.1,17-24c6,6,11.3,5,16-3c0.2,4.4,1.5,8.4,4,12c1.2,3,3.4,4.7,6.5,5
		c-0.2,1.2,0.1,2.2,1,3c6.8,4.5,14.1,5.8,22,4c-0.1-1.1,0-2.1,0.5-3c0.5,1,1.4,1.7,2.5,2c5.5-2,10-5.3,13.5-10
		c1.6,1.9,3.4,3.4,5.5,4.5c14.4,6.6,25.7,3.2,34-10c9.7,2.4,16.8-0.7,21.5-9.5c0.4,3.5,1.4,6.9,3,10c8.4,12.1,18.7,14.1,31,6
		c3,12.6,10.8,17.1,23.5,13.5c5.3-2.3,10.4-4.8,15.5-7.5c15.2,8.6,31.2,10.2,48,5c0.9-0.4,1.6-1.1,2-2
		C385.8,290.4,394,293.4,403.5,292.5z"/>
</g>
<g>
	<path class="st6" d="M230.5,823.5c-9.7-1.3-19.3-1.3-29,0c0.1-0.6,0.4-1.1,1-1.5c8.7-0.7,17.3-0.7,26,0
		C229.4,822.3,230.1,822.8,230.5,823.5z"/>
</g>
<g>
	<path class="st1" d="M230.5,823.5c0.3,0,0.7,0,1,0c3.4,1.7,6.9,3.4,10.5,5c0.4-0.6,0.9-0.9,1.5-1c3.3,1,6.3,2.5,9,4.5
		c2.9,3.2,6,6,9.5,8.5c2.7-1.6,5.6-2.9,8.5-4c0.4,0.6,1.1,1,2,1c4.2-1.6,8.5-2.8,13-3.5c0.6-0.4,0.9-0.9,1-1.5c5,0.1,10,0.4,15,1
		c7.9,3.9,15,8.9,21.5,15c1,4.3,1.8,4.6,2.5,1c3.4-3,7.4-5,12-6c0.2,0.6,0.7,0.9,1.5,1c2.1-0.6,4.3-1.1,6.5-1.5
		c0.6-0.4,0.9-0.9,1-1.5c6.3,0.2,12.3,1.7,18,4.5c2.5,3.5,5.3,6.7,8.5,9.5c2.1,2.6,3.5,5.6,4,9c0.8-1.5,2-2.7,3.5-3.5
		c11.4-5.2,22.4-4.6,33,2c2.3,1.6,3.8,3.8,4.5,6.5c0.6-2.2,1.6-4.2,3-6c24.4-24.4,50.6-26.5,78.5-6.5c9.8,8.8,16.2,19.7,19,32.5
		c4.1-1.2,8.1-2.7,12-4.5c21.9-3.6,42.9-0.8,63,8.5c3.4-4.5,6.6-9.1,9.5-14c8.5-10.6,18.3-19.6,29.5-27c3.2-0.9,5.9-2.5,8-5
		c3-2.8,6.7-4.6,11-5.5c3.7-0.4,7.4-0.9,11-1.5c3.9-0.9,7.9-1.3,12-1c5-0.2,10,0,15,0.5c1.6,0.2,2.9,0.7,4,1.5c2.5,1.5,5.1,2.8,8,4
		c0.6-0.1,0.9-0.5,1-1c8.8,2.6,15.3,8,19.5,16c2-4.4,5.5-7.1,10.5-8c0.4-0.1,0.8,0.1,1,0.5c-2.1,0.6-2.3,1.1-0.5,1.5
		c3.5-1.5,7.2-2.5,11-3c1.4-0.2,2.2-0.9,2.5-2c4.7,0,9.4,0.4,14,1c6.8,2.9,12.9,6.9,18.5,12c0.4-0.6,0.9-0.9,1.5-1
		c2,1.2,3.5,2.9,4.5,5c3.2-2.4,6.7-4,10.5-5c3.7-0.5,7.6-0.5,11.5,0c1.8-1.7,4-2.4,6.5-2c3.9,0.5,7.6,1.9,11,4
		c5.1,4.9,9.6,10.2,13.5,16c14.7-7.9,28.2-6.2,40.5,5c9.1-11.4,20.8-19.1,35-23c5.2,0.2,10.5,0.2,16,0c4.8,0.2,9.4,1,14,2.5
		c3.8,2.5,7.8,4.5,12,6c1.7,2.7,4.1,4.7,7,6c8.7,8.5,14.4,18.7,17,30.5c-2.6,1.3-2.6,2.6,0,4c3.2-1.8,6.5-3.3,10-4.5
		c-0.9-0.3-1.6-0.8-2-1.5c0.3-0.8,1-1.2,2-1c3.6,0,6.9-0.7,10-2c4-0.5,8-0.8,12-1c14.6-0.3,28,3.3,40,11c3.4,3.2,7.1,6.4,11,9.5
		c-0.3,0.3-0.7,0.7-1,1c1.8,1.8,3.7,3.7,5.5,5.5c0.4-0.6,0.9-0.9,1.5-1c1.9,1.2,3.4,2.9,4.5,5c1.4,1.5,1.5,3,0.5,4.5
		c2-0.5,4-1.3,6-2.5c0,29.7,0,59.3,0,89c-10.1-1.5-19.4-5-28-10.5c-1.7-1.7-3.3-3.3-5-5c-7.7,1.5-15,0.5-22-3
		c-5.3-6.5-8.7-14-10-22.5c-12.5,26.2-32.8,35.8-61,28.5c-3.1-1.4-5.9-3.3-8.5-5.5c-2.2,0.7-4.4,0.2-6.5-1.5c-1.6-2.8-3.9-4.6-7-5.5
		c-4.6,4.9-9.7,8.9-15.5,12c-0.3-0.3-0.7-0.7-1-1c-0.6,2-1.7,3.5-3.5,4.5c-8.8,3.2-16.7,1.8-23.5-4.5c-0.7-2-1.3-4-2-6
		c-0.3,2.1-1.2,2.4-2.5,1c-1.6,1.2-3.1,2.5-4.5,4c-0.4-0.5-0.9-0.8-1.5-1c-0.6,2.1-1.6,3.9-3,5.5c-11.3,5.9-22.6,5.9-34,0
		c-7.2-6-12.2-13.6-15-22.5c-1.7,1.6-3.7,2.3-6,2c0.1,2.4-0.9,4.2-3,5.5c-4.4,2.1-9.1,3.3-14,3.5c-2.1-0.1-4-0.8-5.5-2
		c-0.4,0.9-1.1,1.6-2,2c-2.8-1-5.6-1.9-8.5-2.5c-4.3-3.5-8.7-7-13-10.5c-1.7,1-3,2.4-4,4c-0.9,1.1-1.7,1.1-2.5,0
		c-2.9,2.6-6.1,4.7-9.5,6.5c-5.8,1.2-11.5,1.7-17,1.5c-2.7-0.5-5.4-1.1-8-2c-2.1-2.2-4.8-3.7-8-4.5c-1.8-2.5-4-4.7-6.5-6.5
		c-1.6,1.7-3.1,3.6-4.5,5.5c-3.6,1.9-6.9,4.1-10,6.5c-2,0.6-3.8,0.6-5.5,0c-1.8,1.6-4,2.4-6.5,2.5c-4.3,0.7-8.7,0.7-13,0
		c-6.7-2.2-13.1-5.2-19-9c-0.5-2.4-1.9-4.3-4-5.5c-8.7,10.6-19.9,16.6-33.5,18c-8.8-0.9-17.3-3-25.5-6.5c-4.2-2.2-7.9-5.2-11-9
		c-1.6-0.5-3.3-0.7-5-0.5c-9,0.8-16.3-2.2-22-9c-2.1-5.3-4-10.6-5.5-16c-11.3,25.1-30.5,34.9-57.5,29.5c-4.4-1.3-8.2-3.5-11.5-6.5
		c-2.2,0.7-4.4,0.2-6.5-1.5c-1.6-2.6-3.7-4.4-6.5-5.5c-3.8,2.8-7.3,6-10.5,9.5c-3.6,1.5-7,3.5-10,6c-5,0.9-10,1.2-15,1
		c-4.8-2.7-8.9-6.2-12.5-10.5c-1.7,1.7-3.3,3.3-5,5c-0.3-0.7-0.7-1.3-1-2c-1.8,4.8-5.3,8-10.5,9.5c-14.2,3.1-25.7-1-34.5-12.5
		c-2.7-4.8-5.1-9.8-7-15c-1.5,1.7-3.3,2.7-5.5,3c-0.8,4.3-3.5,6.8-8,7.5c-5.1,2.1-9.9,1.9-14.5-0.5c-0.7,1.1-1.7,1.7-3,2
		c-3.6-1-7.1-2.4-10.5-4c-3.3-3-6.6-6-10-9c-7.2,9-16.2,11.7-27,8c-1.3,0.9-2.6,1.1-4,0.5c-5.1-3.3-9.5-7.5-13-12.5
		c-0.8,3.3-1.6,6.7-2.5,10c-0.6-2.1-1.1-2.3-1.5-0.5c1.2,1.7,0.9,3.2-1,4.5c-1.1-1.1-2.1-1.1-3,0c1.5,2.1,1.2,3.8-1,5
		c-1.1-3.9-1.9-3.9-2.5,0c-6.6,3.4-11.9,2.1-16-4c-1,1.3-2,1.3-3,0c-0.2,2.2,0.7,4,2.5,5.5c-3,10.3-9.8,16.5-20.5,18.5
		c-1.1-2.4-1.6-2.1-1.5,1c-11.5,3-18.7-1.3-21.5-13c-0.3,0.9-0.8,1.6-1.5,2c-0.6-0.1-1.1-0.4-1.5-1c-1.4,2.4-3.4,4-6,5
		c-1.5-0.9-2.5-2.3-3-4c-1.9,3.7-4.7,6.1-8.5,7c-0.5-3.7-0.9-3.3-1,1c-7-0.6-13.5-3-19.5-7c-5.3-8.5-8.1-17.8-8.5-28
		c-13.5,6.1-27.2,6.6-41,1.5c-2.5-2.2-4.7-4.7-6.5-7.5c-3.1-8.9-5.8-17.9-8-27c-3.5,3.8-7.3,7.3-11.5,10.5c-7.4,3-14.5,6.2-21.5,9.5
		c-4.4-0.8-8.9-1.3-13.5-1.5c-1.6-0.3-2.7-1.2-3.5-2.5c-2.1,1.1-4.2,1.3-6.5,0.5c-10.7-4.8-20.4-10.8-29-18c-0.5,0.6-0.9,1.2-1,2
		c3.3,4.3,5.5,9.1,6.5,14.5c2.7,14.6-1.8,26.3-13.5,35c0-35,0-70,0-105c0.9-0.6,1.9-0.9,3-1c3.4-1.7,6.7-3.3,10-5
		c22.6-6.9,44.3-4.7,65,6.5c4.5,2.5,8.3,5.6,11.5,9.5c0.7-1.8,1.8-3.2,3.5-4c5.3-3.3,10.7-6.7,16-10c3.5-1.4,7.2-2,11-2
		c5.4,0.6,10.7,1.1,16,1.5c10.1-16.2,23.1-29.7,39-40.5c-0.1,0.4,0.1,0.8,0.5,1c5.1-3.5,10.3-6.8,15.5-10c3.6-0.8,7.3-1.5,11-2
		C211.2,822.2,220.8,822.2,230.5,823.5z"/>
</g>
<g>
	<path class="st7" d="M231.5,823.5c4.5,0,8.5,1.3,12,4c-0.6,0.1-1.1,0.4-1.5,1C238.4,826.9,234.9,825.2,231.5,823.5z"/>
</g>
<g>
	<path class="st8" d="M190.5,825.5c-5.2,3.2-10.4,6.5-15.5,10c-0.4-0.2-0.6-0.6-0.5-1C179.2,830.5,184.5,827.5,190.5,825.5z"/>
</g>
<g>
	<path class="st9" d="M286.5,832.5c-0.1,0.6-0.4,1.1-1,1.5c-4.5,0.7-8.8,1.9-13,3.5c-0.9,0-1.6-0.4-2-1c1.3-1.3,3-2.1,5-2.5
		C279.2,833.5,282.8,833,286.5,832.5z"/>
</g>
<g>
	<path class="st7" d="M301.5,833.5c1.7-0.2,3.4,0,5,0.5c7.7,3.5,14,8.7,19,15.5c-0.7,3.6-1.5,3.3-2.5-1
		C316.5,842.4,309.4,837.4,301.5,833.5z"/>
</g>
<g>
	<path class="st10" d="M193.5,834.5c1.5,1,2.8,2.1,4,3.5C194.8,838.5,193.5,837.3,193.5,834.5z"/>
</g>
<g>
	<path class="st11" d="M674.5,839.5c-4.1-0.3-8.1,0.1-12,1c1.5-1.3,3.5-2,6-2C670.7,838.5,672.7,838.8,674.5,839.5z"/>
</g>
<g>
	<path class="st12" d="M273.5,841.5c1,0,1.7,0.5,2,1.5C271.3,847.7,270.7,847.2,273.5,841.5z"/>
</g>
<g>
	<path class="st13" d="M346.5,841.5c-0.1,0.6-0.4,1.1-1,1.5c-2.2,0.4-4.4,0.9-6.5,1.5c-0.8-0.1-1.3-0.4-1.5-1
		C340.2,842.1,343.2,841.4,346.5,841.5z"/>
</g>
<g>
	<path class="st9" d="M693.5,841.5c3.5-0.4,6.5,0.6,9,3c-0.1,0.5-0.4,0.9-1,1C698.6,844.3,696,843,693.5,841.5z"/>
</g>
<g>
	<path class="st14" d="M640.5,847.5c-2.1,2.5-4.8,4.1-8,5C634.6,850,637.3,848.4,640.5,847.5z"/>
</g>
<g>
	<path class="st15" d="M746.5,849.5c-0.3,1.1-1.1,1.8-2.5,2c-3.8,0.5-7.5,1.5-11,3c-1.8-0.4-1.6-0.9,0.5-1.5c-0.2-0.4-0.6-0.6-1-0.5
		C736.9,850.9,741.6,849.9,746.5,849.5z"/>
</g>
<g>
	<path class="st16" d="M760.5,850.5c8.1,1.1,14.8,4.7,20,11c-0.6,0.1-1.1,0.4-1.5,1C773.4,857.4,767.3,853.4,760.5,850.5z"/>
</g>
<g>
	<path class="st17" d="M195.5,849.5c1.2-0.2,2.2,0.1,3,1c-2,1.6-2.7,3.4-2,5.5c-1,0.7-2,0.7-3,0
		C194.4,853.9,195.1,851.7,195.5,849.5z"/>
</g>
<g>
	<path class="st12" d="M653.5,852.5c1.7,0.2,3,1,4,2.5C655.1,855.9,653.7,855.1,653.5,852.5z"/>
</g>
<g>
	<path class="st12" d="M646.5,856.5c2.4,1.6,2.6,3.6,0.5,6C646.5,860.5,646.3,858.5,646.5,856.5z"/>
</g>
<g>
	<path class="st18" d="M813.5,859.5c-2.5-0.4-4.7,0.3-6.5,2c-3.9-0.5-7.8-0.5-11.5,0C801.3,858.6,807.3,857.9,813.5,859.5z"/>
</g>
<g>
	<path class="st5" d="M733.5,858.5c1,0,1.7,0.5,2,1.5C731.3,864.7,730.7,864.2,733.5,858.5z"/>
</g>
<g>
	<path class="st15" d="M913.5,861.5c5.3-1.3,10.7-1.3,16,0C924,861.8,918.7,861.8,913.5,861.5z"/>
</g>
<g>
	<path class="st19" d="M655.5,866.5c0.9-0.1,1.5,0.2,2,1c-1.2,1.1-2.1,2.4-2.5,4C654.4,869.7,654.5,868.1,655.5,866.5z"/>
</g>
<g>
	<path class="st20" d="M174.5,861.5c3.3,1.9,3.6,4.3,1,7c0.5,1,1.1,1.8,2,2.5c-1.2,1.5-1.2,3,0,4.5c-1.3-0.2-2.6,0.5-4,2
		c-1.4-2.6-1-4.9,1-7c-0.7-0.7-1.3-1.3-2-2C174.8,866.4,175.4,864.1,174.5,861.5z"/>
</g>
<g>
	<path class="st5" d="M674.5,872.5c1.1,0.1,1.8,0.8,2,2c-0.3,0.7-0.7,1.3-1,2C674.6,875.3,674.2,874,674.5,872.5z"/>
</g>
<g>
	<path class="st21" d="M12.5,873.5c-3.3,1.7-6.6,3.3-10,5C4.9,875.3,8.3,873.7,12.5,873.5z"/>
</g>
<g>
	<path class="st22" d="M108.5,875.5c-5.3,3.3-10.7,6.7-16,10C96.8,880.7,102.2,877.3,108.5,875.5z"/>
</g>
<g>
	<path class="st12" d="M159.5,880.5c0.9-0.1,1.5,0.2,2,1C159.4,886.4,158.8,886.1,159.5,880.5z"/>
</g>
<g>
	<path class="st5" d="M258.5,879.5c0.9,1.1,1.7,1.1,2.5,0C260.6,884.7,259.8,884.7,258.5,879.5z"/>
</g>
<g>
	<path class="st23" d="M434.5,881.5c1.5,0.3,2.2,1.3,2,3C433.8,884.6,433.1,883.6,434.5,881.5z"/>
</g>
<g>
	<path class="st24" d="M632.5,884.5c3.8,3.1,3.9,6.4,0.5,10c-0.8-2.3-0.3-4.3,1.5-6c-0.6-1.3-1.6-2.1-3-2.5
		C632.1,885.6,632.4,885.1,632.5,884.5z"/>
</g>
<g>
	<path class="st12" d="M243.5,894.5c3.3,0.9,3.6,2.2,1,4C243.6,897.3,243.2,896,243.5,894.5z"/>
</g>
<g>
	<path class="st25" d="M760.5,891.5c0.8,1.4,1.8,2.7,3,4c-1,1.2-2.2,2.2-3.5,3c-2.2-0.6-2.9-1.9-2-4c0.4,0.5,0.9,0.8,1.5,1
		C760.4,894.3,760.8,893,760.5,891.5z"/>
</g>
<g>
	<path class="st12" d="M619.5,897.5c1.1,1.6,1,3.3-0.5,5C615.8,900.5,616,898.9,619.5,897.5z"/>
</g>
<g>
	<path class="st12" d="M893.5,899.5c4.2-0.1,4.7,0.9,1.5,3C894,901.8,893.5,900.8,893.5,899.5z"/>
</g>
<g>
	<path class="st26" d="M999.5,901.5c-3.1,1.3-6.4,2-10,2C992.5,901.8,995.8,901.2,999.5,901.5z"/>
</g>
<g>
	<path class="st24" d="M719.5,903.5c1.1,1.4,1.3,3.1,0.5,5C718.2,907,718,905.3,719.5,903.5z"/>
</g>
<g>
	<path class="st27" d="M987.5,904.5c0.4,0.7,1.1,1.2,2,1.5c-3.5,1.2-6.8,2.7-10,4.5c-2.6-1.4-2.6-2.7,0-4
		C982.2,906,984.9,905.4,987.5,904.5z"/>
</g>
<g>
	<path class="st12" d="M702.5,912.5c1.8-0.3,3.2,0.4,4,2C704.2,915.9,702.8,915.3,702.5,912.5z"/>
</g>
<g>
	<path class="st19" d="M276.5,909.5c1-0.1,1.8,0.2,2.5,1c0.7,2.7,0.7,5.3,0,8c-0.4,0.5-0.9,0.8-1.5,1c-1.1-1.9-1.3-3.9-0.5-6
		c0.7,1.2,1.2,1.2,1.5,0C277.4,912.4,276.7,911,276.5,909.5z"/>
</g>
<g>
	<path class="st28" d="M182.5,910.5c1.1,2.5,1.3,5.1,0.5,8c-0.9,1.2-1.7,1.2-2.5,0C181.3,915.9,182,913.2,182.5,910.5z"/>
</g>
<g>
	<path class="st12" d="M49.5,914.5c0.6,0.4,1,1.1,1,2c-0.5,2-1,4-1.5,6C48.3,919.7,48.4,917.1,49.5,914.5z"/>
</g>
<g>
	<path class="st15" d="M1051.5,911.5c7.3,3.3,12.9,8.3,17,15c-0.6,0.1-1.1,0.4-1.5,1c-1.8-1.8-3.7-3.7-5.5-5.5c0.3-0.3,0.7-0.7,1-1
		C1058.6,917.9,1054.9,914.8,1051.5,911.5z"/>
</g>
<g>
	<path class="st24" d="M263.5,922.5c0.7-0.1,1.4,0,2,0.5c-0.6,1.2-1.2,2.4-2,3.5C261.2,925.4,261.2,924,263.5,922.5z"/>
</g>
<g>
	<path class="st23" d="M363.5,928.5c1.1,1.4,1.3,3.1,0.5,5C362.2,932,362,930.3,363.5,928.5z"/>
</g>
<g>
	<path class="st29" d="M736.5,927.5c2.5,0.4,3.5,1.9,3,4.5c0.2,2-0.5,3.5-2,4.5c-1.3-2.2-1-4.2,1-6
		C737.4,929.7,736.7,928.7,736.5,927.5z"/>
</g>
<g>
	<path class="st30" d="M176.5,1002.5c8,0.2,14.6-2.4,20-8c0.7-0.4,1.2-1.1,1.5-2c2.8,11.7,10,16,21.5,13c-0.1-3.1,0.4-3.4,1.5-1
		c10.7-2,17.5-8.2,20.5-18.5c-1.8-1.5-2.7-3.3-2.5-5.5c1,1.3,2,1.3,3,0c4.1,6.1,9.4,7.4,16,4c0.6-3.9,1.4-3.9,2.5,0
		c2.2-1.2,2.5-2.9,1-5c0.9-1.1,1.9-1.1,3,0c1.9-1.3,2.2-2.8,1-4.5c0.4-1.8,0.9-1.6,1.5,0.5c0.9-3.3,1.7-6.7,2.5-10
		c3.5,5,7.9,9.2,13,12.5c1.4,0.6,2.7,0.4,4-0.5c10.8,3.7,19.8,1,27-8c3.4,3,6.7,6,10,9c3.4,1.6,6.9,3,10.5,4c1.3-0.3,2.3-0.9,3-2
		c4.6,2.4,9.4,2.6,14.5,0.5c4.5-0.7,7.2-3.2,8-7.5c2.2-0.3,4-1.3,5.5-3c1.9,5.2,4.3,10.2,7,15c8.8,11.5,20.3,15.6,34.5,12.5
		c5.2-1.5,8.7-4.7,10.5-9.5c0.3,0.7,0.7,1.3,1,2c1.7-1.7,3.3-3.3,5-5c3.6,4.3,7.7,7.8,12.5,10.5c5,0.2,10-0.1,15-1
		c3-2.5,6.4-4.5,10-6c3.2-3.5,6.7-6.7,10.5-9.5c2.8,1.1,4.9,2.9,6.5,5.5c2.1,1.7,4.3,2.2,6.5,1.5c3.3,3,7.1,5.2,11.5,6.5
		c27,5.4,46.2-4.4,57.5-29.5c1.5,5.4,3.4,10.7,5.5,16c-1,0.4-1.2,1.1-0.5,2c3.3,3.4,7.1,5.9,11.5,7.5c-0.8,0.3-1.5,0.8-2,1.5
		c2.2,0.7,4.4,1.4,6.5,2c3-0.7,5.8-0.7,8.5,0c0.3-0.3,0.7-0.7,1-1c-2.9-0.8-5.9-1.3-9-1.5c2.2-0.2,4.2-0.7,6-1.5
		c1.7-0.2,3.4,0,5,0.5c3.1,3.8,6.8,6.8,11,9c8.2,3.5,16.7,5.6,25.5,6.5c13.6-1.4,24.8-7.4,33.5-18c2.1,1.2,3.5,3.1,4,5.5
		c5.9,3.8,12.3,6.8,19,9c4.3,0.7,8.7,0.7,13,0c2.5-0.1,4.7-0.9,6.5-2.5c1.7,0.6,3.5,0.6,5.5,0c1.9,1.2,3.9,1,6-0.5
		c3.1-2.3,6.1-4.8,9-7.5c4.1,3.4,8.4,6.4,13,9c0.3-0.7,0.6-1.4,1-2c2.6,0.9,5.3,1.5,8,2c0.1,1-0.2,1.8-1,2.5
		c10.4,1.6,19.8-0.9,28-7.5c1,0.5,1.8,1.1,2.5,2c1.9,10.5,2.6,10.5,2,0c-1.1-1.6-1.9-3.2-2.5-5c1-1.6,2.3-3,4-4
		c4.3,3.5,8.7,7,13,10.5c2.9,0.6,5.7,1.5,8.5,2.5c0.9-0.4,1.6-1.1,2-2c1.5,1.2,3.4,1.9,5.5,2c4.9-0.2,9.6-1.4,14-3.5
		c2.1-1.3,3.1-3.1,3-5.5c2.3,0.3,4.3-0.4,6-2c2.8,8.9,7.8,16.5,15,22.5c11.4,5.9,22.7,5.9,34,0c1.4-1.6,2.4-3.4,3-5.5
		c0.6,0.2,1.1,0.5,1.5,1c1.4-1.5,2.9-2.8,4.5-4c1.3,1.4,2.2,1.1,2.5-1c0.7,2,1.3,4,2,6c6.8,6.2,14.7,7.8,23.5,4.5
		c1.8-1,2.9-2.5,3.5-4.5c0.3,0.3,0.7,0.7,1,1c5.8-3.1,10.9-7.1,15.5-12c3.1,0.9,5.4,2.7,7,5.5c2.1,1.7,4.3,2.2,6.5,1.5
		c2.6,2.2,5.4,4.1,8.5,5.5c28.2,7.2,48.5-2.2,61-28.5c1.3,8.5,4.7,16,10,22.5c7,3.5,14.3,4.5,22,3c1.7,1.7,3.3,3.3,5,5
		c8.6,5.5,17.9,9,28,10.5c0,17,0,34,0,51c-17.2-2.1-30.8-10.1-41-24c-15.2,12.1-28.5,10.4-40-5c-3.2,4.4-7.2,7.9-12,10.5
		c-8.4,4.2-17.1,7.9-26,11c-5.7,0.7-11.3,0.7-17,0c-3.8-0.8-7.3-2.3-10.5-4.5c-9.4,3.4-18.2,2.3-26.5-3.5c-3.2-3.7-6.2-7.6-9-11.5
		c-7.9,9.1-17.6,15.6-29,19.5c-14.1,3-27,0.2-38.5-8.5c-13.4,5.7-26.5,5.2-39.5-1.5c-3.2-2.9-6-6-8.5-9.5c-0.9,3.4-1.9,6.7-3,10
		c-4.3,5.2-8.8,10.2-13.5,15c-6.1,3.5-12.4,6.1-19,8c-5,0-10,0-15,0c-3.7-2.6-7.9-4.6-12.5-6c-2.8,1.7-5.3,3.7-7.5,6
		c-26.3,0-52.7,0-79,0c-10.8-3.7-18.8-10.7-24-21c-4.2,10.9-11.9,17.9-23,21c-3.7,0-7.3,0-11,0c-6-2.2-11.7-5.2-17-9
		c-3.9,3.8-8.2,6.8-13,9c-9,0-18,0-27,0c-9.1-4.9-15.6-12.2-19.5-22c-11.5,6.1-22.3,5.1-32.5-3c-8.5,14.9-21.2,23.2-38,25
		c-3.7,0-7.3,0-11,0c-11.3-3.4-20.8-9.8-28.5-19c-1.2-3-2.8-5.7-5-8c-11.5,4.5-22.7,4-33.5-1.5c-1.9-1.8-3.6-3.8-5-6
		c-5.1-0.2-10.1-0.9-15-2c-3.2-2.5-6.5-4-10-4.5c-6.2,7.7-13.6,14.2-22,19.5c-13.6,5.7-26.4,4.6-38.5-3.5
		c-14.8,16.9-33,22.1-54.5,15.5c-4.4-1.7-8.2-4.2-11.5-7.5c-12.8,1.8-24.3-1.4-34.5-9.5c-3.6-3.8-6.6-7.9-9-12.5
		c-9.6,19.2-24.2,24.8-44,16.5c-2.5-1.5-4.6-3.3-6.5-5.5c-10.1,10.2-22.3,13.7-36.5,10.5c-10.2-4.2-17.9-11.2-23-21
		c-5.2,0.9-10.6,1.8-16,2.5c-6.5-1.3-12.5-3.6-18-7c-0.8,4.1-2.8,7.4-6,10c0-20.7,0-41.3,0-62c11.7-8.7,16.2-20.4,13.5-35
		c-1-5.4-3.2-10.2-6.5-14.5c0.1-0.8,0.5-1.4,1-2c8.6,7.2,18.3,13.2,29,18c2.3,0.8,4.4,0.6,6.5-0.5c0.8,1.3,1.9,2.2,3.5,2.5
		c4.6,0.2,9.1,0.7,13.5,1.5c7-3.3,14.1-6.5,21.5-9.5c4.2-3.2,8-6.7,11.5-10.5c2.2,9.1,4.9,18.1,8,27c1.8,2.8,4,5.3,6.5,7.5
		c13.8,5.1,27.5,4.6,41-1.5c0.4,10.2,3.2,19.5,8.5,28C163,999.5,169.5,1001.9,176.5,1002.5z"/>
</g>
<g>
	<path class="st23" d="M722.5,940.5c2.5,0.9,2.6,2.2,0.5,4C721.2,943.3,721.1,942,722.5,940.5z"/>
</g>
<g>
	<path class="st31" d="M498.5,936.5c1.1,0.3,1.8,1.1,2,2.5c-0.9,7.5-2.6,8-5,1.5c0.3-1.2,0.8-1.2,1.5,0
		C497.8,939.3,498.3,937.9,498.5,936.5z"/>
</g>
<g>
	<path class="st12" d="M728.5,940.5c2.6,1.3,2.6,2.6,0,4C727.7,943.3,727.7,942,728.5,940.5z"/>
</g>
<g>
	<path class="st19" d="M247.5,944.5c2.8,1.2,3.5,3.2,2,6C248.5,948.6,247.9,946.6,247.5,944.5z"/>
</g>
<g>
	<path class="st10" d="M296.5,943.5c0.7,1.7,1.4,3.6,2,5.5c-1.1,0.7-2.1,0.6-3-0.5c1.4-1.3,1.1-2.2-1-2.5
		C295.4,945.3,296,944.5,296.5,943.5z"/>
</g>
<g>
	<path class="st12" d="M823.5,945.5c1,0,1.7,0.5,2,1.5c-0.5,3.3-1.5,3.8-3,1.5C823.1,947.6,823.5,946.6,823.5,945.5z"/>
</g>
<g>
	<path class="st19" d="M427.5,953.5c2.4,1.4,2.9,3,1.5,5C428,957,427.5,955.3,427.5,953.5z"/>
</g>
<g>
	<path class="st23" d="M286.5,952.5c1.1,2.5,1.3,5.1,0.5,8C285.3,957.9,285.1,955.2,286.5,952.5z"/>
</g>
<g>
	<path class="st19" d="M959.5,954.5c2.3,1.5,1.9,3-1,4.5c2.4,1.5,2.2,3-0.5,4.5c-0.3-1.7-0.8-3.4-1.5-5
		C958.3,957.7,959.3,956.4,959.5,954.5z"/>
</g>
<g>
	<path class="st19" d="M485.5,966.5c1.1-0.1,2.1,0,3,0.5c-0.6,1.9-0.9,3.7-1,5.5C485.7,971,485.1,969,485.5,966.5z"/>
</g>
<g>
	<path class="st12" d="M174.5,973.5c5.2,3,6.1,7,2.5,12C176.9,981.3,176,977.3,174.5,973.5z"/>
</g>
<g>
	<path class="st19" d="M209.5,984.5c3.3,1.2,3.8,3.2,1.5,6c-0.2-1.9-1-3.4-2.5-4.5C209.1,985.6,209.4,985.1,209.5,984.5z"/>
</g>
<g>
	<path class="st29" d="M946.5,983.5c3.6,0.2,4,1.3,1,3.5c2.2,1.1,2.3,2.3,0.5,3.5C946.6,988.4,946.1,986.1,946.5,983.5z"/>
</g>
<g>
	<path class="st32" d="M558.5,979.5c5.7,6.8,13,9.8,22,9c-1.8,0.8-3.8,1.3-6,1.5c3.1,0.2,6.1,0.7,9,1.5c-0.3,0.3-0.7,0.7-1,1
		c-2.7-0.7-5.5-0.7-8.5,0c-2.1-0.6-4.3-1.3-6.5-2c0.5-0.7,1.2-1.2,2-1.5c-4.4-1.6-8.2-4.1-11.5-7.5
		C557.3,980.6,557.5,979.9,558.5,979.5z"/>
</g>
<g>
	<path class="st5" d="M950.5,988.5c0.5,2.1,0.5,4.1,0,6C949.5,992.5,949.5,990.5,950.5,988.5z"/>
</g>
<g>
	<path class="st28" d="M732.5,997.5c-0.4,0.6-0.7,1.3-1,2c-4.6-2.6-8.9-5.6-13-9c-2.9,2.7-5.9,5.2-9,7.5c-2.1,1.5-4.1,1.7-6,0.5
		c3.1-2.4,6.4-4.6,10-6.5c1.4-1.9,2.9-3.8,4.5-5.5c2.5,1.8,4.7,4,6.5,6.5C727.7,993.8,730.4,995.3,732.5,997.5z"/>
</g>
<g>
	<path class="st33" d="M769.5,991.5c0.6,1.8,1.4,3.4,2.5,5c0.6,10.5-0.1,10.5-2,0c-0.7-0.9-1.5-1.5-2.5-2c-8.2,6.6-17.6,9.1-28,7.5
		c0.8-0.7,1.1-1.5,1-2.5c5.5,0.2,11.2-0.3,17-1.5c3.4-1.8,6.6-3.9,9.5-6.5C767.8,992.6,768.6,992.6,769.5,991.5z"/>
</g>
<g>
	<path class="st33" d="M196.5,994.5c-5.4,5.6-12,8.2-20,8c0.1-4.3,0.5-4.7,1-1c3.8-0.9,6.6-3.3,8.5-7c0.5,1.7,1.5,3.1,3,4
		c2.6-1,4.6-2.6,6-5C195.4,994.1,195.9,994.4,196.5,994.5z"/>
</g>
<g>
	<path class="st34" d="M35.5,1021.5c2.4,2.1,2.6,4.4,0.5,7C36.5,1026.1,36.4,1023.8,35.5,1021.5z"/>
</g>
<g>
	<path class="st0" d="M416.5,1079.5c-139,0-278,0-417,0c0-11,0-22,0-33c3.2-2.6,5.2-5.9,6-10c5.5,3.4,11.5,5.7,18,7
		c5.4-0.7,10.8-1.6,16-2.5c5.1,9.8,12.8,16.8,23,21c14.2,3.2,26.4-0.3,36.5-10.5c1.9,2.2,4,4,6.5,5.5c19.8,8.2,34.4,2.8,44-16.5
		c2.4,4.6,5.4,8.8,9,12.5c10.2,8.1,21.7,11.2,34.5,9.5c3.3,3.3,7.1,5.8,11.5,7.5c21.5,6.6,39.7,1.4,54.5-15.5
		c12.1,8.1,24.9,9.2,38.5,3.5c8.4-5.3,15.8-11.8,22-19.5c3.5,0.5,6.8,2,10,4.5c4.9,1.1,9.9,1.8,15,2c1.4,2.2,3.1,4.2,5,6
		c10.8,5.5,22,6,33.5,1.5c2.2,2.3,3.8,5,5,8C395.7,1069.8,405.2,1076.1,416.5,1079.5z"/>
</g>
<g>
	<path class="st0" d="M1079.5,1073.5c0,2,0,4,0,6c-111,0-222,0-333,0c6.6-1.9,12.9-4.5,19-8c4.7-4.8,9.2-9.8,13.5-15
		c1.1-3.3,2.1-6.6,3-10c2.5,3.5,5.3,6.6,8.5,9.5c13,6.7,26.1,7.2,39.5,1.5c11.5,8.7,24.4,11.5,38.5,8.5c11.4-3.9,21.1-10.4,29-19.5
		c2.8,3.9,5.8,7.8,9,11.5c8.3,5.8,17.1,6.9,26.5,3.5c3.2,2.2,6.7,3.7,10.5,4.5c5.7,0.7,11.3,0.7,17,0c8.9-3.1,17.6-6.8,26-11
		c4.8-2.6,8.8-6.1,12-10.5c11.5,15.4,24.8,17.1,40,5C1048.7,1063.4,1062.3,1071.4,1079.5,1073.5z"/>
</g>
<g>
	<path class="st0" d="M517.5,1079.5c-30,0-60,0-90,0c16.8-1.8,29.5-10.1,38-25c10.2,8.1,21,9.1,32.5,3
		C501.9,1067.3,508.4,1074.6,517.5,1079.5z"/>
</g>
<g>
	<path class="st0" d="M632.5,1079.5c-15.7,0-31.3,0-47,0c11.1-3.1,18.8-10.1,23-21C613.7,1068.8,621.7,1075.8,632.5,1079.5z"/>
</g>
<g>
	<path class="st35" d="M574.5,1079.5c-10,0-20,0-30,0c4.8-2.2,9.1-5.2,13-9C562.8,1074.3,568.5,1077.3,574.5,1079.5z"/>
</g>
<g>
	<path class="st35" d="M731.5,1079.5c-6.7,0-13.3,0-20,0c2.2-2.3,4.7-4.3,7.5-6C723.6,1074.9,727.8,1076.9,731.5,1079.5z"/>
</g>
</svg>
